PathFileType	4	(X/Y/Z)	19_1_50_p1_0-358.trc
DataRate	CameraRate	NumFrames	NumMarkers	Units	OrigDataRate	OrigDataStartFrame	OrigNumFrames
60.0	60.0	5	27	m	60.0	44	359
Frame#	Time	RHip			RKnee			RAnkle			RBigToe			RSmallToe			RHeel			LHip			LKnee			LAnkle			LBigToe			LSmallToe			LHeel			Neck			Head			Nose			RShoulder			RElbow			RWrist			RThumb			RIndex			RPinky			LShoulder			LElbow			LWrist			LThumb			LIndex			LPinky			
		X1	Y1	Z1	X2	Y2	Z2	X3	Y3	Z3	X4	Y4	Z4	X5	Y5	Z5	X6	Y6	Z6	X7	Y7	Z7	X8	Y8	Z8	X9	Y9	Z9	X10	Y10	Z10	X11	Y11	Z11	X12	Y12	Z12	X13	Y13	Z13	X14	Y14	Z14	X15	Y15	Z15	X16	Y16	Z16	X17	Y17	Z17	X18	Y18	Z18	X19	Y19	Z19	X20	Y20	Z20	X21	Y21	Z21	X22	Y22	Z22	X23	Y23	Z23	X24	Y24	Z24	X25	Y25	Z25	X26	Y26	Z26	X27	Y27	Z27	
44	0.7333333333333333	0.2968302366202229	0.5594652180359952	0.9288162333043383	0.2862586672119675	0.5444666494793291	1.3560372176910158	0.2758196242256892	0.5183453884002551	1.7360712231313509	0.2772607426904144	0.39920670764863986	1.7515881674673661	0.3259242866187842	0.39313149317429114	1.734278860490501	0.24209114087917885	0.5936195133718034	1.8223708866992474	0.06869708302102479	0.5295498754684589	0.9294694328781108	0.07269762046842855	0.5446278396821159	1.3549309628299626	0.06744147625997474	0.5349765336680901	1.7584089855108118	0.11037564690581829	0.3590517923804681	1.7356428099906542	0.057240481881570576	0.38035514389172403	1.7468513077002212	0.064248902995287	0.5857044413155963	1.8084500147996678	0.18601150003552203	0.4992910479796921	0.35250105187141373	0.194230531825384	0.45570388555546065	0.11377526664313038	0.18274642817060238	0.3821492290202917	0.22410457177681242	0.330617226392778	0.5007896345469531	0.4417335345011369	0.40792034074174854	0.5328933221970256	0.6985094253283063	0.4224610409692784	0.4158085728785025	0.9322408476042783	0.38196069307547864	0.37607628156342265	1.0491817872600664	0.40672621328427067	0.3644071023947689	1.0511908877109877	0.430535606639433	0.3966350001620425	1.0540775773886133	0.03719648032898255	0.4837894983948652	0.4428448870221601	-0.026145562234156153	0.5003082656979214	0.7156345599551522	-0.03475387153218869	0.4331728011040183	0.9474430965211068	0.0026732378346246725	0.39206906675329517	1.0475886862811676	-0.01494700365034259	0.3438834859043751	1.0364638043816554	-0.08014351497286482	0.3902802111220776	1.0482299513438036
45	0.75	0.2968673091902059	0.5597071871252551	0.9289110429180064	0.29065522385398274	0.5291147528529258	1.3434683360207695	0.2784380744203497	0.532101613886577	1.7445215566976975	0.2762376321464849	0.39982111483607513	1.7564520324237003	0.3259440462183867	0.3934857435663398	1.734438819576914	0.24499137628765053	0.6069851744439834	1.8307507187025869	0.07260485948651348	0.5308154242693308	0.929657235630889	0.07117062114660307	0.5464580025099652	1.3558931777626575	0.0674189301439791	0.5350248548120157	1.7583669268471263	0.11051701507938025	0.35827370673592424	1.7353879191028876	0.05720614768283309	0.3800558185276892	1.7469965204024622	0.07121391924227405	0.5705736257807413	1.797921154347026	0.1860531899704416	0.4993069932897502	0.35247290312924373	0.1942697717347636	0.4556651555942726	0.11379258676116037	0.18275225872904108	0.381668343500129	0.2270309567509351	0.33114456556871685	0.5014549085204931	0.4455452388709139	0.4133177377734865	0.5349098692368972	0.6995031997221077	0.43091894123936264	0.42877363433057514	0.9441351086174735	0.3988349946594783	0.37676169965147077	1.0516284655635928	0.4156478874012811	0.3680374913335274	1.0521490896154262	0.4423212218123603	0.4038508974930831	1.0605408398744227	0.037257564267288955	0.4836723657813819	0.4428318025207939	-0.03265145320912671	0.5135646029141205	0.7157166013315039	-0.041222912312595617	0.445575022255786	0.9524625580179096	0.0021843888232732493	0.3930348317062613	1.0474355948641565	-0.027413491273768322	0.3680814252877771	1.0473070767007648	-0.0847619260355523	0.3883687283451376	1.0514461849480972
46	0.7666666666666667	0.3013301278121256	0.5470604041781472	0.9243328871924592	0.2898745491632884	0.529025824376234	1.348354888283664	0.27736876988955406	0.5322787981817777	1.7494055026278366	0.27145022673564584	0.39686493628024655	1.7548930271778327	0.326773027651517	0.39430848287159087	1.7391774918161917	0.24498040116037667	0.6073630550777888	1.8309388973758258	0.07169283122203361	0.5314011845805907	0.9292809542488697	0.06865781121621015	0.5314399021151204	1.3432202428283722	0.06745311060096154	0.5349522513508731	1.7583774659465052	0.1096065181673351	0.3572497927803267	1.7300187694735478	0.05727655588287789	0.38014499997910123	1.7465764571571067	0.06431153763994489	0.5857746086511605	1.808277582200263	0.18618642821665202	0.49906145634847227	0.3525217272130945	0.19433314284997413	0.45551667015116704	0.11374396133519686	0.18650761419327178	0.3830630057184317	0.2270663408361922	0.33107556640548835	0.4999393423714901	0.44517466755000373	0.41788702787784854	0.5205149939282598	0.6990239781648445	0.44178235129554594	0.4388513385736248	0.9435583542183923	0.4032373470367588	0.37947585927711197	1.052398543653893	0.41962367809316714	0.3801026090189821	1.0608088474381432	0.4491187668851826	0.44234488178391423	1.0764995011015313	0.03725882200478108	0.4836656420236566	0.4429224831157958	-0.03288073222836074	0.5135092833217302	0.7153729818648408	-0.04265062361344303	0.4327525299291577	0.9476839775013824	-0.006298953641439975	0.3818331119840885	1.0421351674169257	-0.04066554857184967	0.39141951539751774	1.0581438404436019	-0.09042941954177669	0.39979187689142437	1.0526936861840828
47	0.7833333333333333	0.2960533958881691	0.5600500528956868	0.9301238756945046	0.2826012582435076	0.5304142674888245	1.344819255742138	0.2774507537998612	0.5319834151621691	1.7494983688450751	0.2670518883086759	0.3726369058835639	1.739151818195564	0.330610103263482	0.37798283077411754	1.7239532536791364	0.2452155675080343	0.6078139723979658	1.8317685675298019	0.0776488054183281	0.5183649343752968	0.9243002634807821	0.0698252124562087	0.5311189500129426	1.3525860777005225	0.06830086195182669	0.5364633116709783	1.7644969292421617	0.10825758921162092	0.346973624267902	1.723256082652686	0.05713866070748157	0.3805518978869856	1.746304581855933	0.07214392058050588	0.5722415567100373	1.8043032987891987	0.18635533368117668	0.49989185987818685	0.3563009529246196	0.19439992762932903	0.45569743496744264	0.11380207959292955	0.186530137246147	0.38312196433138623	0.22706435442701686	0.331486640791904	0.5008183776637027	0.44891558451591995	0.4177390818551128	0.5209222137835738	0.69887767450231	0.4454612654209279	0.4512061098150225	0.9479625740210982	0.4150642143289233	0.3789901410071886	1.0511524270140484	0.4313914329940514	0.38005169152391893	1.0560180973402329	0.4613719375850913	0.45346070274812633	1.0791794764208662	0.03551836425029977	0.472256414532595	0.4409153912421288	-0.039204309422846986	0.5255923652881758	0.7191314497180559	-0.049714039359932904	0.43283048343974395	0.9447345031457002	-0.010904743617892065	0.4068973363877481	1.0487866712962333	-0.05179460248580777	0.40016280509308033	1.058962454182907	-0.09078216554991743	0.40003596954783244	1.0526126035989682
48	0.8	0.2969334411654526	0.559792048291294	0.9383436359121209	0.28555919381059114	0.5438818210147067	1.3513208789223516	0.27751004414243735	0.5318737833779559	1.7496206697690022	0.2700239794291487	0.3653845136248291	1.732397354428617	0.32352100698569236	0.38104392030045015	1.7259422297223939	0.24672618330789287	0.6079144524844664	1.8410633065492727	0.07806444768441977	0.5183389420797331	0.9247370751845595	0.0709051991270001	0.5314391594767317	1.3486770697432828	0.06827635593415676	0.5367378355188868	1.7646642698613242	0.10747192711689499	0.33652023387873586	1.7205006612078466	0.057082659045019635	0.38044994084237693	1.7462254071715684	0.07211126949324473	0.5723824989871121	1.803831093690511	0.19155422850137827	0.4877198175933085	0.3541306580682039	0.19433410000558493	0.45564873138453854	0.11374792137679449	0.18656751183039552	0.3831332972455978	0.22710185369431687	0.33102234141042053	0.49995964380750146	0.44515568462611255	0.4137323516552358	0.5353847772151487	0.6998571369256134	0.44534565761024875	0.4515632534374819	0.944311253780521	0.4193861853104807	0.37984350886137297	1.0513413512772452	0.43129207694096644	0.3789095430355081	1.0522195456887038	0.4696913968155828	0.4585630874404252	1.0755066342356792	0.03738474901431228	0.4833920485256553	0.442850361483595	-0.03870637824673749	0.5258977130385123	0.7158549091409903	-0.05407192813883749	0.43021793782217127	0.9436892393993811	-0.02256540366275441	0.41792726874347086	1.0570950953843667	-0.052704350993454004	0.4012398395939085	1.0598423539656578	-0.08708779812379999	0.40281962573380375	1.0536588655660835
